<svg viewBox="0 0 500 500" width="500" height="500" version="1.1" baseProfile="full" xmlns="http://www.w3.org/2000/svg"><style id="js-draw-style-sheet">path{stroke-linecap:round;stroke-linejoin:round;}text{white-space:pre;}</style><path d="M298,121q-125,0 -152,17q-28,18 -41,69q-14,58 24,135q29,59 121,80q73,17 128-26q41-32 62-94q18-54 -16-97q-7-8 -23-35q-9-14 -55-39q-7-4 -31-3" fill="none" stroke="#ffffff" stroke-width="16"></path><path d="M192,246q32,45 32,22q0-8 6-31q2-7 -19-15q-4-2 -2,17q1,6 -22-12q-4-3 6,20" fill="none" stroke="#ffffff" stroke-width="16"></path><path d="M319,233q-15,7 -13,15q4,17 35,48q6,6 24-36q24-53 -14-22q-6,5 -31-2" fill="none" stroke="#ffffff" stroke-width="16"></path><path d="M220,333q91,37 107,12q1-2 8-8" fill="none" stroke="#ffffff" stroke-width="16"></path></svg>