<svg viewBox="0 0 500 500" width="500" height="500" version="1.1" baseProfile="full" xmlns="http://www.w3.org/2000/svg"><style id="js-draw-style-sheet">path{stroke-linecap:round;stroke-linejoin:round;}text{white-space:pre;}</style><path d="M151,78q12,27 35,52q48,52 51,53q5,2 14-18q8-18 55-56q28-23 39-44" fill="none" stroke="#ffffff" stroke-width="11"></path><path d="M131,216q.9,.9 0,.9q-.9,0 -.9-.9q0-.9 .9-.9q.9,0 .9,.9" fill="none" stroke="#ffffff" stroke-width="9"></path><path d="M383,209q.9,.9 0,.9q-.9,0 -.9-.9q0-.9 .9-.9q.9,0 .9,.9" fill="none" stroke="#ffffff" stroke-width="9"></path><path d="M165,408q0-29 12-53q16-33 45-49q64-37 117-10q25,13 58,78q15,31 13,33" fill="none" stroke="#ffffff" stroke-width="11"></path></svg>