<svg viewBox="0 0 500 500" width="500" height="500" version="1.1" baseProfile="full" xmlns="http://www.w3.org/2000/svg"><style id="js-draw-style-sheet">path{stroke-linecap:round;stroke-linejoin:round;}text{white-space:pre;}</style><path d="M133,108q-45,82 -45,115q0,83 97,76q45-3 71-98q14-52 -77-86q-29-11 -41-11" fill="none" stroke="#ffffff" stroke-width="14"></path><path d="M175,134q0,41 18,49q35,15 35-28q0-35 -47-16q-37,15 7,51q37,31 49-19q9-36 -56-27q-29,4 8,18q8,3 32-6q3-1 -11,5" fill="none" stroke="#ffffff" stroke-width="14"></path><path d="M358,121q-24,6 -33,24q-34,69 1,95q82,61 119-13q33-67 -44-111q-29-16 -56,11" fill="none" stroke="#ffffff" stroke-width="14"></path><path d="M366,123q6,29 22,35q35,13 42-8q4-13 -47-28q-25-7 -10,37q6,17 50,17q27,0 7-40q-17-33 -48,3q-27,32 11,43q35,10 23-44q-3-15 -21,6" fill="none" stroke="#ffffff" stroke-width="14"></path><path d="M216,430q150-79 190-89q2,0 7-4" fill="none" stroke="#ffffff" stroke-width="14"></path><path d="M280,298q1,1 0,1q-1,0 -1-1q0-1 1-1q1,0 1,1" fill="none" stroke="#ffffff" stroke-width="11"></path></svg>