<svg viewBox="0 0 500 500" width="500" height="500" version="1.1" baseProfile="full" xmlns="http://www.w3.org/2000/svg"><style id="js-draw-style-sheet">path{stroke-linecap:round;stroke-linejoin:round;}text{white-space:pre;}</style><path d="M135,147q14,12 31,13q19,1 10-25q-3-10 -33-8q-12,1 -6,31q3,13 38,13q24,0 0-24q-17-17 -22,1q-2,5 22,2q18-3 -8-26q-8-7 -12,14q-1,4 15,10q3,1 -9-8q-3-2 -8,12" fill="none" stroke="#ffffff" stroke-width="10"></path><path d="M315,121q2,24 14,30q31,17 47-9q12-21 -34-30q-37-7 -32,35q2,15 51,15q16,0 4-28q-5-11 -36-1q-22,7 9,16q11,3 11-19q0-7 -25-8" fill="none" stroke="#ffffff" stroke-width="10"></path><path d="M327,122q.8,.8 0,.8q-.8,0 -.8-.8q0-.8 .8-.8q.8,0 .8,.8" fill="none" stroke="#ffffff" stroke-width="8"></path><path d="M138,275q18,17 31,21q77,24 134,13q45-8 88-71q2-2 7-9" fill="none" stroke="#ffffff" stroke-width="10"></path><path d="M335,295q17,25 37,35q57,29 70-12q15-47 -17-79q-5-5 -33-19" fill="none" stroke="#ffffff" stroke-width="10"></path><path d="M380,266q17,19 31,28" fill="none" stroke="#ffffff" stroke-width="10"></path></svg>