<svg viewBox="0 0 500 500" width="500" height="500" version="1.1" baseProfile="full" xmlns="http://www.w3.org/2000/svg"><style id="js-draw-style-sheet">path{stroke-linecap:round;stroke-linejoin:round;}text{white-space:pre;}</style><path d="M281,130q-133-3 -146,12q-61,68 -35,172q32,126 222,126q50,0 88-92q50-119 -4-185q-29-36 -125-36" fill="none" stroke="#fcfcfc" stroke-width="22"></path><path d="M175,228q31,15 39,4q1-2 4-7" fill="none" stroke="#fcfcfc" stroke-width="9"></path><path d="M332,221q25,20 32,11q2-3 10-10" fill="none" stroke="#fcfcfc" stroke-width="9"></path><path d="M210,309q11,25 23,34q60,43 97,5q12-12 23-61" fill="none" stroke="#fcfcfc" stroke-width="9"></path></svg>