<svg viewBox="0 0 500 500" width="500" height="500" version="1.1" baseProfile="full" xmlns="http://www.w3.org/2000/svg"><style id="js-draw-style-sheet">path{stroke-linecap:round;stroke-linejoin:round;}text{white-space:pre;}</style><path d="M311,117q-141-9 -162,9q-12,10 -30,73q-27,95 47,169q32,32 131,32q35,0 78-36q53-44 42-143q-8-75 -96-100q-2-1 -10,0" fill="none" stroke="#ffffff" stroke-width="14"></path><path d="M209,232q-12-12 -19-10q-3,1 8,12q2,2 10,1q2,0 -6-6" fill="none" stroke="#ffffff" stroke-width="14"></path><path d="M336,229q2-16 -7-22q-19-13 -19,19q0,2 16,10" fill="none" stroke="#ffffff" stroke-width="14"></path><path d="M219,308q29,0 114,0" fill="none" stroke="#ffffff" stroke-width="14"></path></svg>