<svg viewBox="0 0 500 500" width="500" height="500" version="1.1" baseProfile="full" xmlns="http://www.w3.org/2000/svg"><style id="js-draw-style-sheet">path{stroke-linecap:round;stroke-linejoin:round;}text{white-space:pre;}</style><path d="M132,95q-23,19 -31,52q-22,92 15,113q60,34 101-37q29-50 -39-109q-26-22 -44-4" fill="none" stroke="#ffffff" stroke-width="15"></path><path d="M338,107q-23,46 -23,79q0,50 16,68q45,51 107-22q7-8 3-70q-2-25 -74-73q-9-6 -42-6" fill="none" stroke="#ffffff" stroke-width="15"></path><path d="M433,329q-50,123 -34,147q12,18 56,5q22-7 22-60q0-18 -42-59q-1-1 -1-22" fill="none" stroke="#ffffff" stroke-width="15"></path><path d="M156,448q0-38 14-52q42-42 107-42q27,0 48,83q3,12 3,37" fill="none" stroke="#ffffff" stroke-width="15"></path><path d="M149,203q-9,2 -12,8q-22,44 20,56q28,8 33-33q3-24 -24-37q-18-9 -27,26q-7,28 40,28q27,0 8-37q-10-20 -21,18q-5,17 10,11q4-2 1-23q-1-8 -11-6q-4,1 -4,23q0,2 7,1q2,0 -8-3q-4-1 -15,22" fill="none" stroke="#ffffff" stroke-width="8"></path><path d="M379,203q-8-1 -10,5q-5,15 18,34q6,5 30,1q5-1 1-23q-4-23 -48-16q-36,6 -13,44q14,23 39,4q13-10 5-34q-3-10 -28-10q-13,0 -20,26q-3,12 15,21q11,6 20-17q6-15 -17-15q-20,0 -15,26q3,13 27,9q17-2 26-37q4-14 -27-4q-15,5 -7,36q4,15 24,1q7-4 11-26q1-7 -23,1" fill="none" stroke="#ffffff" stroke-width="8"></path></svg>